HIERARCHY
ROOT hip
{
	OFFSET 0.000000 0.000000 0.000000 
	CHANNELS 6 Xposition Yposition Zposition Xrotation Zrotation Yrotation
	JOINT abdomen
	{
		OFFSET 0.000000 3.402643 0.000000 
		CHANNELS 3 Xrotation Zrotation Yrotation
		JOINT chest
		{
			OFFSET 0.000000 8.438565 -0.680529 
			CHANNELS 3 Xrotation Zrotation Yrotation
			JOINT neck
			{
				OFFSET 0.000000 10.207942 -0.272212 
				CHANNELS 3 Xrotation Zrotation Yrotation
				JOINT head
				{
					OFFSET 0.000000 3.130431 0.000000 
					CHANNELS 3 Xrotation Zrotation Yrotation
					End Site
					{
						OFFSET 0.000000 3.130435 0.000000 
					}
				}
			}
			JOINT lCollar
			{
				OFFSET 3.470700 6.669187 -0.816635 
				CHANNELS 3 Yrotation Zrotation Xrotation
				JOINT lShldr
				{
					OFFSET 3.198488 0.000000 0.000000 
					CHANNELS 3 Zrotation Yrotation Xrotation
					JOINT lForeArm
					{
						OFFSET 10.139888 0.000000 0.000000 
						CHANNELS 3 Yrotation Zrotation Xrotation
						JOINT lHand
						{
							OFFSET 8.370511 0.000000 0.000000 
							CHANNELS 3 Zrotation Yrotation Xrotation
							End Site
							{
								OFFSET 4.083176 0.000000 0.000000 
							}
						}
					}
				}
			}
			JOINT rCollar
			{
				OFFSET -3.470700 6.669187 -0.816635 
				CHANNELS 3 Yrotation Zrotation Xrotation
				JOINT rShldr
				{
					OFFSET -3.198488 0.000000 0.000000 
					CHANNELS 3 Zrotation Yrotation Xrotation
					JOINT rForeArm
					{
						OFFSET -10.139888 0.000000 0.000000 
						CHANNELS 3 Yrotation Zrotation Xrotation
						JOINT rHand
						{
							OFFSET -8.370511 0.000000 0.000000 
							CHANNELS 3 Zrotation Yrotation Xrotation
							End Site
							{
								OFFSET -4.083176 0.000000 0.000000 
							}
						}
					}
				}
			}
		}
	}
	JOINT lThigh
	{
		OFFSET 5.308129 -1.633274 1.361059 
		CHANNELS 3 Xrotation Zrotation Yrotation
		JOINT lShin
		{
			OFFSET -2.041588 -20.007561 0.000000 
			CHANNELS 3 Xrotation Zrotation Yrotation
			JOINT lFoot
			{
				OFFSET 0.000000 -19.190928 -1.224953 
				CHANNELS 3 Xrotation Yrotation Zrotation
				End Site
				{
					OFFSET 0.000000 -2.449906 4.627600 
				}
			}
		}
	}
	JOINT rThigh
	{
		OFFSET -5.308129 -1.633274 1.361059 
		CHANNELS 3 Xrotation Zrotation Yrotation
		JOINT rShin
		{
			OFFSET 2.041588 -20.007561 0.000000 
			CHANNELS 3 Xrotation Zrotation Yrotation
			JOINT rFoot
			{
				OFFSET 0.000000 -19.190928 -1.224953 
				CHANNELS 3 Xrotation Yrotation Zrotation
				End Site
				{
					OFFSET 0.000000 -2.449906 4.627600 
				}
			}
		}
	}
}
MOTION
Frames: 13
Frame Time: 0.016667
4.284344 45.595154 0.911823 1.353150 -14.742200 39.224800 -20.936100 -1.086250 7.464500 17.396000 -3.617550 3.470710 6.355140 10.732300 -14.346100 12.852900 8.204990 -5.572140 2.000000 -2.000000 0.000000 -69.440399 3.583750 167.520996 50.459499 -0.301886 0.105488 0.045261 -0.014175 -141.990005 -2.000000 2.000000 0.000000 38.422401 55.350498 129.005005 -57.217300 0.288875 0.114946 -0.076151 -0.070907 -106.736000 -24.027292 7.150302 -20.515430 29.039850 2.712104 2.193628 -14.942176 -12.898105 -4.689332 -6.598746 6.632633 -16.139767 17.409966 -2.891404 -1.391347 -21.230831 -18.676580 -10.553292 
4.245150 45.604794 0.902745 1.486100 -14.985400 40.609699 -20.992300 -1.329740 7.174320 17.189899 -3.792290 3.308380 6.547580 10.714000 -14.355100 13.000100 8.172480 -5.565530 2.000000 -2.000000 0.000000 -68.991402 3.301800 168.059006 51.494598 -0.299968 0.107043 0.045401 -0.015672 -142.526993 -2.000000 2.000000 0.000000 27.978100 56.477901 118.251999 -55.664600 0.291963 0.112898 -0.075387 -0.069580 -107.282997 -24.652597 6.886400 -21.330244 28.687040 2.696975 2.166431 -14.601119 -13.605504 -4.859439 -6.608137 6.917032 -16.244083 16.696516 -2.828298 -1.363478 -22.141579 -19.235804 -11.242068 
4.239510 45.633324 0.935934 1.830640 -15.080500 41.543701 -21.118500 -1.651310 7.150060 17.012501 -4.074250 3.269070 6.591850 10.581600 -14.454600 13.008100 8.095070 -5.625050 2.000000 -2.000000 0.000000 -68.396004 3.361830 168.673996 52.520000 -0.298039 0.108548 0.045523 -0.016870 -142.957001 -2.000000 2.000000 0.000000 18.314501 56.232399 109.574997 -54.004398 0.295201 0.110617 -0.074636 -0.068245 -107.830002 -24.910902 6.617599 -21.629480 27.944746 2.655180 2.149035 -14.153462 -14.301739 -4.948122 -6.661248 6.894889 -16.193146 16.096642 -2.788524 -1.308525 -23.063494 -19.669336 -11.878601 
4.233859 45.661846 0.969119 2.185520 -15.165300 42.464600 -21.235600 -1.972690 7.126310 16.844700 -4.356110 3.221710 6.635390 10.449600 -14.546400 13.025700 8.007790 -5.686110 2.000000 -2.000000 0.000000 -67.810402 3.431640 169.289001 53.535599 -0.296103 0.110006 0.045651 -0.018039 -143.376999 -2.000000 2.000000 0.000000 8.991770 55.192699 101.222000 -52.354000 0.298353 0.108256 -0.073898 -0.066903 -108.376999 -25.278458 6.284715 -21.924517 27.395090 2.643840 2.116445 -13.789799 -14.955242 -5.077336 -6.753491 6.869135 -16.136045 15.562944 -2.773020 -1.284825 -24.003199 -20.064224 -12.518905 
4.261742 45.683823 1.018816 2.227440 -15.301500 43.110699 -21.204399 -2.157970 7.048810 16.872700 -4.629130 3.168630 6.612620 10.521200 -14.485300 13.036700 8.055780 -5.638120 2.000000 -2.000000 0.000000 -67.732101 3.392020 169.054993 54.092300 -0.295031 0.110790 0.045587 -0.017468 -143.171997 -2.000000 2.000000 0.000000 1.156590 53.758999 95.922096 -50.723099 0.301400 0.105836 -0.074437 -0.067886 -107.976997 -25.384783 6.250512 -22.121742 27.005754 2.606681 2.104713 -13.564923 -15.419683 -5.157054 -6.520258 7.031527 -16.290089 14.863839 -2.780603 -1.217877 -24.256536 -20.453493 -12.804075 
4.289613 45.705807 1.068511 2.279440 -15.427800 43.757000 -21.173300 -2.343320 6.971170 16.900700 -4.902160 3.105500 6.599010 10.593000 -14.413900 13.057600 8.103530 -5.587360 2.000000 -2.000000 0.000000 -67.663696 3.352410 168.820999 54.648899 -0.293952 0.111563 0.045523 -0.016870 -142.957001 -2.000000 2.000000 0.000000 -6.138040 51.933601 91.179604 -49.082500 0.304395 0.103314 -0.074983 -0.068866 -107.575996 -25.458508 6.218826 -22.289248 26.612152 2.604245 2.071808 -13.379554 -15.888139 -5.243446 -6.250056 7.196317 -16.440056 14.055044 -2.735402 -1.165913 -24.448135 -20.829510 -13.124909 
4.302509 45.717884 1.095207 2.321610 -15.573800 43.945999 -21.176600 -2.457110 6.973360 16.889799 -5.087280 3.098610 6.594900 10.533700 -14.255500 13.027600 8.084950 -5.516390 2.000000 -2.000000 0.000000 -67.731796 3.370850 168.352005 54.863800 -0.293533 0.111859 0.045472 -0.016380 -142.781006 -2.000000 2.000000 0.000000 -11.385700 49.902302 90.290703 -47.861801 0.306575 0.101383 -0.075090 -0.069056 -107.498001 -25.652149 6.290887 -22.179424 26.572906 2.600158 2.061785 -13.336301 -16.216187 -5.309768 -5.956470 7.394921 -16.184532 13.174468 -2.696277 -1.116433 -24.574146 -21.050953 -13.327094 
4.315417 45.729961 1.121905 2.373990 -15.719600 44.119701 -21.179800 -2.561780 6.972020 16.879000 -5.272380 3.091780 6.591040 10.484100 -14.097900 12.997500 8.066370 -5.437010 2.000000 -2.000000 0.000000 -67.799896 3.379520 167.882996 55.078602 -0.293113 0.112153 0.045422 -0.015890 -142.604996 -2.000000 2.000000 0.000000 -16.368200 47.822300 89.707001 -46.631302 0.308731 0.099390 -0.075212 -0.069270 -107.410004 -25.798464 6.392380 -22.066910 26.465464 2.599632 2.073230 -13.286859 -16.565372 -5.398542 -5.722791 7.582151 -15.947858 12.440030 -2.667438 -1.065783 -24.731375 -21.267853 -13.534574 
4.334334 45.747822 1.130494 2.648520 -15.765200 43.799301 -21.329599 -2.816590 7.127010 16.778500 -5.651830 3.135440 6.622240 10.288900 -13.925600 12.916100 7.962130 -5.386280 2.000000 -2.000000 0.000000 -67.594704 3.720430 167.501007 55.186001 -0.292903 0.112300 0.045455 -0.016217 -142.723007 -2.000000 2.000000 0.000000 -18.934500 45.644299 93.178001 -46.104000 0.309642 0.098522 -0.075767 -0.070244 -107.010002 -25.806776 6.420203 -21.699993 26.143873 2.577033 2.073642 -12.985861 -16.658083 -5.318415 -5.827319 7.448422 -15.554174 12.232381 -2.654032 -1.048321 -24.699718 -21.327522 -13.566855 
4.353241 45.765820 1.139083 2.913030 -15.810600 43.481098 -21.480200 -3.065140 7.270210 16.677799 -6.021430 3.180750 6.652780 10.094300 -13.745600 12.834700 7.857830 -5.325510 2.000000 -2.000000 0.000000 -67.399300 4.071120 167.130005 55.293499 -0.292692 0.112446 0.045491 -0.016570 -142.850006 -2.000000 2.000000 0.000000 -21.579800 43.573299 96.651001 -45.576599 0.310544 0.097645 -0.076330 -0.071214 -106.609001 -25.838621 6.431412 -21.328970 25.916832 2.580137 2.048511 -12.713613 -16.726215 -5.230402 -5.942291 7.330413 -15.181911 11.989651 -2.659956 -1.013390 -24.625196 -21.402821 -13.596025 
4.371227 45.778412 1.145082 3.013500 -15.741000 42.940399 -21.481100 -3.208300 7.389330 16.745300 -6.187560 3.213840 7.145390 10.058200 -13.480200 13.010500 7.786180 -5.224180 2.000000 -2.000000 0.000000 -67.545303 4.293870 166.328003 55.146999 -0.292979 0.112247 0.045461 -0.016271 -142.742004 -2.000000 2.000000 0.000000 -22.892500 42.018700 101.695999 -45.713299 0.310311 0.097873 -0.078647 -0.075054 -105.008003 -25.694950 6.496278 -20.934620 25.877251 2.579618 2.039324 -12.912040 -16.532692 -5.219804 -6.009789 7.207047 -14.949423 12.086215 -2.681242 -1.043152 -24.393217 -21.414122 -13.440109 
4.389190 45.791004 1.151084 3.124050 -15.671200 42.407101 -21.491800 -3.351110 7.509360 16.802999 -6.363390 3.248250 7.637910 10.021100 -13.213800 13.186500 7.724170 -5.111960 2.000000 -2.000000 0.000000 -67.701202 4.516650 165.537003 55.000500 -0.293266 0.112047 0.045430 -0.015972 -142.634995 -2.000000 2.000000 0.000000 -24.343000 40.560699 106.688004 -45.859798 0.310061 0.098117 -0.081070 -0.078827 -103.405998 -25.555489 6.542792 -20.534384 25.845901 2.600340 2.044394 -13.113321 -16.356188 -5.214325 -6.074211 7.070584 -14.705858 12.201084 -2.664115 -1.069317 -24.186113 -21.423628 -13.336431 
4.379012 45.789452 1.128856 2.620750 -15.970500 41.893902 -21.496599 -3.313360 7.610860 16.711901 -6.713510 3.320430 7.729590 10.252500 -13.122000 13.237400 7.790480 -5.045720 2.000000 -2.000000 0.000000 -67.788597 4.593150 164.834000 54.590302 -0.294066 0.111482 0.045385 -0.015509 -142.468994 -2.000000 2.000000 0.000000 -24.833700 39.413101 112.872002 -46.387199 0.309154 0.098989 -0.081540 -0.079533 -103.103996 -25.514256 7.250288 -20.367695 26.459663 2.645978 2.044247 -13.284405 -16.177637 -5.161450 -5.787626 7.715054 -14.414583 11.799560 -2.616715 -1.022568 -23.713701 -21.661829 -13.280129 
